<svg width="31" height="31" viewBox="0 0 31 31" fill="none" xmlns="http://www.w3.org/2000/svg">
<path d="M29.4134 12.2459L27.2375 11.8767C27.0109 11.145 26.7194 10.4391 26.3633 9.76562L27.6455 7.9718C28.1895 7.20765 28.1053 6.16503 27.4383 5.50449L25.5085 3.57468C25.1458 3.21203 24.6666 3.01128 24.155 3.01128C23.7535 3.01128 23.3714 3.13432 23.0476 3.36745L21.2473 4.64968C20.5479 4.28055 19.8162 3.97619 19.0585 3.74953L18.6958 1.59954C18.5404 0.673491 17.7439 0 16.8049 0H14.0785C13.1395 0 12.343 0.673491 12.1876 1.59954L11.812 3.80134C11.0867 4.02799 10.3808 4.32588 9.70733 4.68853L7.92647 3.40631C7.60267 3.17318 7.21412 3.05014 6.81262 3.05014C6.30102 3.05014 5.81533 3.25089 5.45916 3.61354L3.52287 5.54335C2.86234 6.20389 2.77167 7.2465 3.31565 8.01065L4.61082 9.83037C4.25465 10.5103 3.96971 11.2162 3.74953 11.948L1.59954 12.3106C0.673491 12.4661 0 13.2626 0 14.2016V16.9279C0 17.8669 0.673491 18.6635 1.59954 18.8189L3.80134 19.1945C4.02799 19.9198 4.32588 20.6257 4.68853 21.2991L3.41278 23.0735C2.86881 23.8377 2.953 24.8803 3.62001 25.5408L5.54982 27.4706C5.91247 27.8333 6.39169 28.0341 6.90328 28.0341C7.30478 28.0341 7.68686 27.911 8.01065 27.6779L9.83037 26.3827C10.4844 26.7259 11.1709 27.0044 11.8767 27.2246L12.2394 29.4005C12.3948 30.3265 13.1914 31 14.1304 31H16.8632C17.8022 31 18.5987 30.3265 18.7541 29.4005L19.1233 27.2246C19.855 26.9979 20.5609 26.7065 21.2344 26.3503L23.0282 27.6325C23.352 27.8657 23.7405 27.9887 24.1421 27.9887C24.6536 27.9887 25.1329 27.788 25.4955 27.4253L27.4253 25.4955C28.0859 24.835 28.1765 23.7924 27.6325 23.0282L26.3503 21.2279C26.7065 20.5479 27.0044 19.8421 27.2246 19.1168L29.4005 18.7541C30.3265 18.5987 31 17.8022 31 16.8632V14.1368C31.013 13.1978 30.3395 12.4013 29.4134 12.2459ZM29.2645 16.8632C29.2645 16.9474 29.2062 17.0186 29.122 17.0315L26.4021 17.4849C26.0589 17.5431 25.7869 17.7957 25.7027 18.126C25.4567 19.0779 25.0811 19.991 24.5759 20.8394C24.4011 21.1372 24.414 21.5064 24.6148 21.7913L26.2143 24.0449C26.2597 24.1097 26.2532 24.2068 26.1949 24.2651L24.2651 26.1949C24.2198 26.2402 24.1744 26.2467 24.1421 26.2467C24.1032 26.2467 24.0708 26.2338 24.0449 26.2143L21.7978 24.6148C21.5193 24.414 21.1437 24.4011 20.8458 24.5759C19.9975 25.0811 19.0844 25.4567 18.1324 25.7027C17.7957 25.7869 17.5431 26.0654 17.4913 26.4021L17.0315 29.122C17.0186 29.2062 16.9474 29.2645 16.8632 29.2645H14.1368C14.0526 29.2645 13.9814 29.2062 13.9685 29.122L13.5151 26.4021C13.4569 26.0589 13.2043 25.7869 12.874 25.7027C11.948 25.4631 11.0543 25.094 10.2189 24.6148C10.0829 24.5371 9.92751 24.4982 9.77857 24.4982C9.60372 24.4982 9.42239 24.55 9.27345 24.6601L7.00689 26.2726C6.97451 26.292 6.94214 26.305 6.90976 26.305C6.88385 26.305 6.83205 26.2985 6.78671 26.2532L4.8569 24.3234C4.79862 24.2651 4.79215 24.1744 4.83748 24.1032L6.43054 21.869C6.63129 21.5841 6.64425 21.2085 6.4694 20.9106C5.96428 20.0687 5.57573 19.1556 5.32964 18.2037C5.23898 17.8734 4.96699 17.6208 4.63025 17.5626L1.89095 17.0963C1.80677 17.0834 1.74849 17.0121 1.74849 16.9279V14.2016C1.74849 14.1174 1.80677 14.0462 1.89095 14.0332L4.59139 13.5799C4.93462 13.5216 5.21308 13.2691 5.29726 12.9323C5.53687 11.9804 5.906 11.0608 6.40464 10.2125C6.57949 9.91456 6.56006 9.54544 6.35931 9.26697L4.74681 7.00042C4.70148 6.93566 4.70796 6.83852 4.76624 6.78024L6.69605 4.85043C6.74138 4.8051 6.78671 4.79862 6.81909 4.79862C6.85795 4.79862 6.89033 4.81157 6.91623 4.831L9.15041 6.42407C9.43535 6.62482 9.81095 6.63777 10.1088 6.46292C10.9507 5.9578 11.8638 5.56925 12.8158 5.32317C13.146 5.2325 13.3986 4.96052 13.4569 4.62377L13.9231 1.88448C13.9361 1.80029 14.0073 1.74201 14.0915 1.74201H16.8178C16.902 1.74201 16.9733 1.80029 16.9862 1.88448L17.4395 4.58492C17.4978 4.92814 17.7504 5.2066 18.0871 5.29079C19.065 5.53687 19.9975 5.91895 20.8653 6.43054C21.1632 6.60539 21.5323 6.59244 21.8172 6.39169L24.0514 4.78567C24.0838 4.76624 24.1161 4.75329 24.1485 4.75329C24.1744 4.75329 24.2262 4.75977 24.2716 4.8051L26.2014 6.73491C26.2597 6.79319 26.2661 6.88385 26.2208 6.95509L24.6213 9.20221C24.4205 9.48068 24.4076 9.85628 24.5824 10.1542C25.0875 11.0025 25.4631 11.9156 25.7092 12.8676C25.7934 13.2043 26.0719 13.4569 26.4086 13.5087L29.1285 13.9685C29.2127 13.9814 29.2709 14.0526 29.2709 14.1368V16.8632H29.2645Z" fill="#131313" fill-opacity="0.7"/>
<path d="M15.5032 8.80713C11.812 8.80713 8.81366 11.8055 8.81366 15.4967C8.81366 19.188 11.812 22.1863 15.5032 22.1863C19.1945 22.1863 22.1928 19.188 22.1928 15.4967C22.1928 11.8055 19.1945 8.80713 15.5032 8.80713ZM15.5032 20.4378C12.7769 20.4378 10.5621 18.223 10.5621 15.4967C10.5621 12.7704 12.7769 10.5556 15.5032 10.5556C18.2296 10.5556 20.4443 12.7704 20.4443 15.4967C20.4443 18.223 18.2296 20.4378 15.5032 20.4378Z" fill="#131313" fill-opacity="0.7"/>
</svg>
