<svg width="700" height="873" viewBox="0 0 700 873" fill="none" xmlns="http://www.w3.org/2000/svg">
<path fill-rule="evenodd" clip-rule="evenodd" d="M583.25 206.696H116.749C104.805 206.696 94.8545 215.851 93.8626 227.754L46.0164 801.909C44.9006 815.298 55.4671 826.782 68.9033 826.782H631.097C644.533 826.782 655.099 815.298 653.984 801.909L606.137 227.754C605.145 215.851 595.195 206.696 583.25 206.696ZM116.749 160.763C80.9161 160.763 51.0647 188.23 48.0889 223.94L0.242752 798.094C-3.10468 838.263 28.5949 872.714 68.9033 872.714H631.097C671.405 872.714 703.105 838.263 699.757 798.094L651.911 223.94C648.935 188.23 619.084 160.763 583.25 160.763H116.749Z" fill="#4F4F4F"/>
<path d="M495.718 275.594C498.735 259.284 501.938 97.817 495.717 82.034C489.497 66.251 478.86 51.6645 464.529 39.264C450.197 26.8636 432.505 16.9395 412.655 10.165C392.804 3.39052 371.258 -0.0757951 349.48 0.00125695C327.702 0.078309 306.2 3.69692 286.434 10.6116C266.668 17.5262 249.1 27.5751 234.922 40.0764C220.745 52.5777 210.289 67.2389 204.264 83.0652C198.239 98.8915 201.042 259.306 204.26 275.594H238.832C236.459 263.585 238.162 103.079 242.603 91.411C247.045 79.7428 254.754 68.9335 265.207 59.7167C275.66 50.4999 288.612 43.0912 303.185 37.9932C317.758 32.8953 333.61 30.2274 349.667 30.1706C365.723 30.1137 381.608 32.6693 396.243 37.664C410.879 42.6586 423.922 49.9753 434.488 59.1178C445.055 68.2602 452.897 79.0145 457.483 90.6508C462.069 102.287 463.77 263.569 461.545 275.594H495.718Z" fill="#4F4F4F"/>
</svg>
