<svg width="663" height="663" viewBox="0 0 663 663" fill="none" xmlns="http://www.w3.org/2000/svg">
<path fill-rule="evenodd" clip-rule="evenodd" d="M0 43.7851L43.7851 0L331.5 287.715L619.215 0L663 43.7851L375.285 331.5L408.708 364.923L412.038 368.252L420.568 376.783L425.65 381.865L425.794 382.009L427.173 383.388L427.353 383.568L427.402 383.617L427.579 383.794L663 619.215L619.215 663L383.62 427.405L383.573 427.358L383.4 427.186L382.012 425.797L381.873 425.658L376.788 420.573L368.257 412.042L364.931 408.716L331.5 375.285L43.7851 663L0 619.215L287.715 331.5L0 43.7851Z" fill="#252525"/>
</svg>
