<svg width="38" height="38" viewBox="0 0 38 38" fill="none" xmlns="http://www.w3.org/2000/svg">
<path d="M18.9992 0C8.50718 0 0 8.50718 0 18.9992C0 29.4912 8.50718 38 18.9992 38C29.4912 38 38 29.4912 38 18.9992C38 8.50718 29.4912 0 18.9992 0ZM22.9544 29.4462C21.9765 29.8322 21.198 30.125 20.6141 30.3276C20.0318 30.5303 19.3547 30.6316 18.5842 30.6316C17.4004 30.6316 16.4787 30.3421 15.8225 29.7647C15.1662 29.1872 14.8397 28.4554 14.8397 27.5659C14.8397 27.2201 14.8638 26.8662 14.9121 26.5059C14.9619 26.1456 15.0408 25.7403 15.1485 25.2851L16.3726 20.9615C16.4803 20.5465 16.5736 20.1525 16.6476 19.7857C16.7216 19.4158 16.757 19.0764 16.757 18.7676C16.757 18.2175 16.6428 17.8314 16.416 17.6143C16.186 17.3972 15.7533 17.291 15.1083 17.291C14.7931 17.291 14.4681 17.3377 14.1352 17.4358C13.8055 17.5371 13.5192 17.6288 13.2843 17.7189L13.6076 16.387C14.4086 16.0605 15.1759 15.7807 15.9077 15.549C16.6396 15.3142 17.3312 15.1984 17.9826 15.1984C19.1584 15.1984 20.0656 15.4847 20.7042 16.0509C21.3395 16.6187 21.6596 17.357 21.6596 18.2641C21.6596 18.4523 21.6371 18.7837 21.5937 19.2565C21.5502 19.731 21.4682 20.1637 21.3492 20.561L20.1316 24.8717C20.0318 25.2175 19.9434 25.6132 19.8629 26.0555C19.7841 26.4979 19.7455 26.8356 19.7455 27.0624C19.7455 27.635 19.8726 28.0259 20.1299 28.2334C20.3841 28.4409 20.8296 28.5454 21.4601 28.5454C21.7577 28.5454 22.0907 28.4924 22.467 28.3894C22.8402 28.2865 23.1104 28.1948 23.2809 28.116L22.9544 29.4462ZM22.7389 11.9493C22.1711 12.4769 21.4875 12.7407 20.6881 12.7407C19.8903 12.7407 19.2019 12.4769 18.6292 11.9493C18.0599 11.4217 17.7719 10.7799 17.7719 10.0304C17.7719 9.28245 18.0615 8.63907 18.6292 8.10667C19.2019 7.57266 19.8903 7.30726 20.6881 7.30726C21.4875 7.30726 22.1727 7.57266 22.7389 8.10667C23.3067 8.63907 23.5914 9.28245 23.5914 10.0304C23.5914 10.7815 23.3067 11.4217 22.7389 11.9493Z" fill="#030104"/>
</svg>
