<svg width="145" height="65" viewBox="0 0 145 65" fill="none" xmlns="http://www.w3.org/2000/svg">
<path fill-rule="evenodd" clip-rule="evenodd" d="M0.860657 28.2352V64H17.8614H30.2433L27 56.5082H11.6796H9.11148V25.901V0.00012207H6.39844H0.860657V28.2352Z" fill="#909090"/>
<path fill-rule="evenodd" clip-rule="evenodd" d="M19.1205 15.9281L19.1055 29.4684L30.2293 18.1713L35.1128 18.1831H39.0902L24.9455 32.0404L40.3531 64.0039H36.6638H32.2383L19.1205 34.5076L19.1055 43.6734V54.6825H16.5055H11.3826V20.6815L11.3826 0H16.5055H19.1204L19.1205 15.9281Z" fill="#FCFCFC"/>
<path fill-rule="evenodd" clip-rule="evenodd" d="M90.4825 17.0378C88.001 17.3209 86.455 17.7398 84.6497 18.6185C83.0358 19.404 81.8272 20.2721 80.4662 21.6231C78.0399 24.0316 76.6674 26.8572 76.1817 30.4434C76.0643 31.3104 76.0635 34.0066 76.1804 34.8572C76.5424 37.4914 77.3813 39.7457 78.7047 41.6402C81.3463 45.422 85.3523 47.7412 90.0959 48.235C90.4862 48.2756 91.4167 48.3089 92.1636 48.3089C94.3286 48.3089 95.9403 48.0767 97.7185 47.5086C99.881 46.8177 101.705 45.7487 103.416 44.1691C106.207 41.5922 107.8 38.3713 108.211 34.4756C108.323 33.423 108.26 30.887 108.1 29.918C107.508 26.3469 106.039 23.623 103.375 21.1577C100.856 18.8262 97.8988 17.4954 94.352 17.0977C93.5051 17.0028 91.1141 16.9657 90.4825 17.0378ZM52.0591 17.7625C52.0591 17.7625 52 24.5344 52 32.6971V47.5382H53.2788H54.5575L54.5762 39.6284L54.5947 31.7186L62.4756 39.6284L70.3563 47.5382H72.1508H73.8833C73.8833 47.5382 70.294 43.9053 66.0766 39.7624C61.8592 35.6196 58.1992 32.0234 57.9433 31.7709L57.478 31.3119L65.3145 24.5547L73.151 17.7975L71.3682 17.7787L69.5854 17.7599L69.1799 18.1357C68.2522 18.9954 54.6336 31.144 54.5975 31.144C54.5759 31.144 54.5582 28.1332 54.5582 24.4532V17.7625H53.3278H52.0591ZM110.797 17.7773C110.797 17.7773 113.506 24.6682 116.722 32.7837L122.569 47.5393L123.985 47.5212L125.401 47.5032L131.312 32.6503C134.562 24.4813 137.223 17.78 137.223 17.78H135.917H134.562C134.562 17.78 132.154 23.9049 129.298 31.2018C126.441 38.4988 124.072 44.4696 124.031 44.4703C123.991 44.4711 121.633 38.533 118.79 31.2747C115.948 24.0163 113.45 17.7773 113.45 17.7773H112.168H110.797ZM141.902 32.6503V47.5382H143.145H144.387V32.6503V17.7625H143.145H141.902V32.6503ZM93.1869 19.1669C96.7917 19.4007 99.601 20.6737 101.925 23.1262C103.88 25.1886 104.955 27.3301 105.479 30.2012C105.665 31.2216 105.664 34.0353 105.478 35.1025C104.915 38.3245 103.464 40.9928 101.175 43.0143C99.0405 44.8991 96.5322 45.9051 93.3765 46.142C88.0983 46.5383 83.7955 44.5849 81.0191 40.5321C79.1074 37.7415 78.3344 34.093 78.8669 30.3734C79.2501 27.6962 80.3614 25.3659 82.2597 23.259C84.4804 20.7944 87.5233 19.3796 91.0672 19.164C91.5094 19.1371 91.9206 19.1108 91.9809 19.1054C92.0412 19.1001 92.5839 19.1278 93.1869 19.1669Z" fill="#FCFCFC"/>
<path fill-rule="evenodd" clip-rule="evenodd" d="M80.4602 54.9209C79.9739 54.9937 79.5524 55.1176 79.0711 55.3292C78.5006 55.5799 78.1143 55.8348 77.6264 56.2824C76.8647 56.981 76.4197 57.7653 76.2513 58.706C76.1739 59.1382 76.2031 60.1036 76.3052 60.4933C76.5441 61.4043 77.0202 62.1407 77.793 62.7947C78.547 63.4328 79.3912 63.809 80.4246 63.9674C81.0275 64.0598 82.0228 64.0379 82.588 63.9198C83.542 63.7204 84.3482 63.3128 85.0724 62.6636C85.8322 61.9825 86.3226 61.1239 86.4848 60.1906C86.5681 59.711 86.5332 58.8189 86.4133 58.368C86.1795 57.488 85.7257 56.7998 84.9388 56.1315C84.149 55.4608 83.3087 55.0815 82.2615 54.9227C81.8491 54.8602 80.8722 54.8592 80.4602 54.9209ZM110.557 54.8936C110.066 54.95 109.375 55.1342 108.957 55.3201C108.407 55.5645 107.811 55.9771 107.378 56.4125C106.761 57.0331 106.387 57.6933 106.187 58.5144C106.083 58.941 106.075 59.8774 106.17 60.3326C106.573 62.2571 108.351 63.7537 110.522 63.9959C111.003 64.0496 111.996 64.0181 112.41 63.9361C113.39 63.7418 114.161 63.3648 114.906 62.7158C115.69 62.0326 116.174 61.2312 116.371 60.2924C116.455 59.8919 116.453 59.0086 116.367 58.5987C116.155 57.5806 115.575 56.6831 114.682 55.9911C113.675 55.2111 112.607 54.8653 111.24 54.8766C110.923 54.8792 110.616 54.8868 110.557 54.8936ZM51.6274 59.4488V63.868H54.6906H57.7537V63.2367V62.6053H55.4208H53.0878V58.8175V55.0297H52.3576H51.6274V59.4488ZM136.719 59.4488V63.868H137.431H138.144V59.4941V59.4488V55.0297H137.431H136.719V59.4488ZM82.1361 56.2418C82.8454 56.3745 83.3876 56.6348 83.9451 57.1104C84.7736 57.817 85.1673 58.7914 85.0387 59.8171C84.9845 60.2506 84.8901 60.5406 84.6809 60.9166C83.9988 62.1429 82.5271 62.8533 80.9771 62.7043C79.9118 62.6019 79.0271 62.1662 78.4108 61.4404C77.4593 60.3197 77.4185 58.7426 78.3115 57.5971C78.9135 56.8248 79.8503 56.3111 80.8653 56.1965C81.1815 56.1609 81.8264 56.1838 82.1361 56.2418ZM111.733 56.201C112.561 56.2909 113.253 56.5894 113.852 57.1147C114.195 57.4161 114.411 57.6838 114.615 58.0617C114.84 58.4793 114.922 58.7806 114.946 59.2785C114.994 60.2805 114.683 61.029 113.927 61.731C113.138 62.4627 112.008 62.8176 110.836 62.7017C110.346 62.6532 110.02 62.5696 109.594 62.3836C108.884 62.0739 108.31 61.5594 107.956 60.9166C107.693 60.4393 107.617 60.1679 107.593 59.6146C107.549 58.615 107.854 57.8745 108.589 57.1879C109.415 56.4182 110.524 56.0698 111.733 56.201Z" fill="#909090"/>
<path d="M140.143 57.0971L138.393 59.1645L138.144 59.4488V59.4941L138.393 59.762L138.738 60.1341C138.927 60.3388 139.786 61.2626 140.646 62.1871L142.209 63.868H143.118C143.689 63.868 144.022 63.8566 144.015 63.8374C144.008 63.8205 143.081 62.8325 141.955 61.6417C140.828 60.4509 139.903 59.4596 139.898 59.439C139.893 59.4184 140.708 58.4569 141.709 57.3024C142.709 56.1479 143.56 55.1642 143.599 55.1165L143.669 55.0297H142.781H141.892L140.143 57.0971Z" fill="#909090"/>
</svg>
