<svg width="111" height="51" viewBox="0 0 111 51" fill="none" xmlns="http://www.w3.org/2000/svg">
<path fill-rule="evenodd" clip-rule="evenodd" d="M-6.10352e-05 22.0502V49.9808H13.1835H22.7852L20.1624 44.1301H8.38971H6.39819V20.2274V0.00012207H4.29431H-6.10352e-05V22.0502Z" fill="#6A6A6A"/>
<path fill-rule="evenodd" clip-rule="evenodd" d="M14.1598 12.4391L14.1483 23.0133L22.7744 14.1909L26.5614 14.2001H29.6457L18.677 25.022L30.6251 49.9838H27.7642H24.3323L14.1598 26.9487L14.1483 34.1067V42.7043H12.132H8.1594V16.1513L8.15939 3.05176e-05H12.132H14.1598L14.1598 12.4391Z" fill="#252525"/>
<path fill-rule="evenodd" clip-rule="evenodd" d="M69.1987 13.6199C67.2744 13.8409 66.0755 14.1681 64.6756 14.8543C63.424 15.4677 62.4868 16.1457 61.4314 17.2007C59.5499 19.0817 58.4855 21.2884 58.1089 24.089C58.0179 24.766 58.0172 26.8717 58.1079 27.536C58.3886 29.5931 59.0391 31.3536 60.0654 32.8331C62.1139 35.7865 65.2204 37.5977 68.8989 37.9833C69.2016 38.015 69.9232 38.041 70.5023 38.041C72.1812 38.041 73.431 37.8597 74.81 37.416C76.4869 36.8765 77.9013 36.0416 79.228 34.8081C81.3925 32.7956 82.6282 30.2802 82.947 27.2379C83.0331 26.4159 82.9849 24.4354 82.8604 23.6786C82.4015 20.8898 81.2623 18.7626 79.1968 16.8373C77.2434 15.0165 74.9498 13.9773 72.1994 13.6667C71.5426 13.5925 69.6885 13.5636 69.1987 13.6199ZM39.4026 14.1858C39.4026 14.1858 39.3568 19.4743 39.3568 25.849V37.4391H40.3484H41.34L41.3545 31.262L41.3689 25.0848L47.4802 31.262L53.5915 37.4391H54.983H56.3266C56.3266 37.4391 53.5431 34.602 50.2727 31.3666C47.0022 28.1313 44.1641 25.3229 43.9656 25.1257L43.6047 24.7672L49.6817 19.4902L55.7587 14.2132L54.3762 14.1985L52.9936 14.1838L52.6792 14.4773C51.9598 15.1487 41.399 24.6361 41.371 24.6361C41.3543 24.6361 41.3405 22.2848 41.3405 19.411V14.1858H40.3865H39.4026ZM84.9522 14.1974C84.9522 14.1974 87.0528 19.5788 89.5468 25.9166L94.0811 37.44L95.1791 37.4259L96.277 37.4118L100.86 25.8125C103.381 19.4328 105.445 14.1995 105.445 14.1995H104.432H103.381C103.381 14.1995 101.513 18.9827 99.2985 24.6813C97.0836 30.3798 95.2459 35.0427 95.2147 35.0433C95.1836 35.0439 93.3547 30.4066 91.1506 24.7382C88.9465 19.0698 87.009 14.1974 87.009 14.1974H86.0155H84.9522ZM109.073 25.8125V37.4391H110.037H111V25.8125V14.1858H110.037H109.073V25.8125ZM71.2958 15.2826C74.0913 15.4652 76.2698 16.4593 78.0721 18.3746C79.5877 19.9852 80.4218 21.6576 80.8277 23.8998C80.9719 24.6967 80.9716 26.8941 80.827 27.7275C80.3906 30.2437 79.2653 32.3275 77.4902 33.9062C75.8352 35.3781 73.8901 36.1638 71.4429 36.3488C67.3498 36.6583 64.0131 35.1328 61.8601 31.9678C60.3777 29.7884 59.7783 26.9391 60.1912 24.0343C60.4884 21.9436 61.3501 20.1237 62.8222 18.4783C64.5443 16.5536 66.904 15.4487 69.6521 15.2803C69.995 15.2593 70.3139 15.2388 70.3606 15.2346C70.4074 15.2304 70.8282 15.2521 71.2958 15.2826Z" fill="#252525"/>
<path fill-rule="evenodd" clip-rule="evenodd" d="M61.7156 43.067C61.3386 43.1235 61.0117 43.2196 60.6384 43.3836C60.196 43.5781 59.8964 43.7757 59.5181 44.1228C58.9274 44.6646 58.5824 45.2727 58.4518 46.0022C58.3918 46.3374 58.4144 47.086 58.4936 47.3882C58.6788 48.0947 59.048 48.6657 59.6473 49.1729C60.232 49.6678 60.8866 49.9595 61.688 50.0823C62.1556 50.154 62.9273 50.137 63.3657 50.0454C64.1055 49.8908 64.7307 49.5746 65.2922 49.0713C65.8814 48.5431 66.2617 47.8772 66.3875 47.1535C66.4521 46.7816 66.425 46.0898 66.3321 45.7402C66.1508 45.0578 65.7989 44.5241 65.1886 44.0058C64.5762 43.4857 63.9246 43.1915 63.1125 43.0684C62.7927 43.02 62.0351 43.0192 61.7156 43.067ZM85.055 43.0458C84.6742 43.0896 84.1381 43.2324 83.8139 43.3766C83.3876 43.5661 82.925 43.8861 82.5893 44.2237C82.1108 44.705 81.8208 45.2169 81.666 45.8536C81.5856 46.1845 81.5788 46.9107 81.6528 47.2637C81.9655 48.756 83.3444 49.9166 85.0278 50.1044C85.4008 50.146 86.1705 50.1216 86.4913 50.058C87.2514 49.9073 87.8495 49.615 88.4271 49.1117C89.0352 48.5819 89.4109 47.9605 89.5632 47.2324C89.6282 46.9218 89.6268 46.2369 89.5605 45.919C89.3958 45.1295 88.9458 44.4335 88.2532 43.8969C87.4725 43.292 86.6445 43.0239 85.584 43.0326C85.3386 43.0346 85.1006 43.0406 85.055 43.0458ZM39.3568 46.5783V50.0052H41.7321H44.1075V49.5156V49.0261H42.2983H40.4892V46.0887V43.1514H39.923H39.3568V46.5783ZM105.342 46.5783V50.0052H105.895H106.447V46.6134V46.5783V43.1514H105.895H105.342V46.5783ZM63.0152 44.0913C63.5653 44.1942 63.9857 44.3961 64.418 44.7649C65.0605 45.3129 65.3658 46.0684 65.2661 46.8639C65.2241 47.2001 65.1509 47.4249 64.9887 47.7165C64.4597 48.6675 63.3184 49.2183 62.1165 49.1028C61.2904 49.0234 60.6043 48.6855 60.1264 48.1227C59.3885 47.2536 59.3569 46.0307 60.0494 45.1423C60.5162 44.5435 61.2427 44.1451 62.0298 44.0562C62.275 44.0286 62.775 44.0464 63.0152 44.0913ZM85.9665 44.0597C86.6087 44.1294 87.1455 44.3609 87.6097 44.7682C87.8761 45.002 88.0433 45.2095 88.2014 45.5026C88.3761 45.8265 88.4397 46.0601 88.4583 46.4462C88.4956 47.2232 88.2544 47.8037 87.6678 48.348C87.0563 48.9154 86.1802 49.1907 85.2713 49.1008C84.8914 49.0632 84.6382 48.9984 84.3077 48.8541C83.7576 48.6139 83.3121 48.215 83.0375 47.7165C82.8336 47.3464 82.775 47.1359 82.7563 46.7069C82.7225 45.9317 82.9583 45.3574 83.529 44.825C84.1688 44.2281 85.0294 43.9579 85.9665 44.0597Z" fill="#6A6A6A"/>
<path d="M107.997 44.7546L106.641 46.3578L106.447 46.5783V46.6134L106.641 46.8212L106.908 47.1097C107.055 47.2684 107.721 47.9848 108.388 48.7017L109.6 50.0052H110.305C110.747 50.0052 111.006 49.9964 111 49.9815C110.995 49.9684 110.276 49.2022 109.403 48.2788C108.529 47.3553 107.811 46.5867 107.808 46.5707C107.804 46.5547 108.436 45.8091 109.212 44.9138C109.988 44.0185 110.647 43.2557 110.678 43.2187L110.732 43.1514H110.043H109.354L107.997 44.7546Z" fill="#6A6A6A"/>
</svg>
