<svg width="31" height="31" viewBox="0 0 31 31" fill="none" xmlns="http://www.w3.org/2000/svg">
<mask id="path-1-inside-1" fill="white">
<path d="M31 29.6301L20.4937 19.1238C22.2096 17.0976 23.25 14.4821 23.25 11.625C23.25 5.21459 18.0354 0 11.625 0C5.21465 0 0 5.21459 0 11.625C0 18.0354 5.21459 23.25 11.625 23.25C14.4821 23.25 17.0976 22.2096 19.1238 20.4937L29.6301 31L31 29.6301ZM11.625 21.3125C6.28364 21.3125 1.93752 16.9664 1.93752 11.625C1.93752 6.28364 6.28364 1.93752 11.625 1.93752C16.9664 1.93752 21.3125 6.28364 21.3125 11.625C21.3125 16.9664 16.9664 21.3125 11.625 21.3125Z"/>
</mask>
<path d="M31 29.6301L32.4142 31.0443L33.8284 29.6301L32.4142 28.2159L31 29.6301ZM20.4937 19.1238L18.9675 17.8313L17.7777 19.2363L19.0795 20.538L20.4937 19.1238ZM19.1238 20.4937L20.538 19.0795L19.2363 17.7777L17.8313 18.9675L19.1238 20.4937ZM29.6301 31L28.2159 32.4142L29.6301 33.8284L31.0443 32.4142L29.6301 31ZM32.4142 28.2159L21.9079 17.7096L19.0795 20.538L29.5858 31.0443L32.4142 28.2159ZM22.02 20.4163C24.0273 18.0459 25.25 14.9772 25.25 11.625H21.25C21.25 13.9869 20.3919 16.1493 18.9675 17.8313L22.02 20.4163ZM25.25 11.625C25.25 4.11001 19.1399 -2 11.625 -2V2C16.9308 2 21.25 6.31917 21.25 11.625H25.25ZM11.625 -2C4.11008 -2 -2 4.11001 -2 11.625H2C2 6.31917 6.31921 2 11.625 2V-2ZM-2 11.625C-2 19.14 4.11002 25.25 11.625 25.25V21.25C6.31916 21.25 2 16.9309 2 11.625H-2ZM11.625 25.25C14.9772 25.25 18.0459 24.0273 20.4163 22.02L17.8313 18.9675C16.1493 20.3919 13.9869 21.25 11.625 21.25V25.25ZM17.7096 21.9079L28.2159 32.4142L31.0443 29.5858L20.538 19.0795L17.7096 21.9079ZM31.0443 32.4142L32.4142 31.0443L29.5858 28.2159L28.2159 29.5858L31.0443 32.4142ZM11.625 19.3125C7.38821 19.3125 3.93752 15.8618 3.93752 11.625H-0.0624791C-0.0624791 18.071 5.17907 23.3125 11.625 23.3125V19.3125ZM3.93752 11.625C3.93752 7.38821 7.38821 3.93752 11.625 3.93752V-0.0624791C5.17907 -0.0624791 -0.0624791 5.17907 -0.0624791 11.625H3.93752ZM11.625 3.93752C15.8618 3.93752 19.3125 7.38821 19.3125 11.625H23.3125C23.3125 5.17907 18.071 -0.0624791 11.625 -0.0624791V3.93752ZM19.3125 11.625C19.3125 15.8618 15.8618 19.3125 11.625 19.3125V23.3125C18.071 23.3125 23.3125 18.071 23.3125 11.625H19.3125Z" fill="#131313" fill-opacity="0.7" mask="url(#path-1-inside-1)"/>
</svg>
