<svg width="837" height="837" viewBox="0 0 837 837" fill="none" xmlns="http://www.w3.org/2000/svg">
<path d="M837 418.5C837 649.631 649.631 837 418.5 837C187.369 837 0 649.631 0 418.5C0 187.369 187.369 0 418.5 0C649.631 0 837 187.369 837 418.5ZM41.85 418.5C41.85 626.518 210.482 795.15 418.5 795.15C626.518 795.15 795.15 626.518 795.15 418.5C795.15 210.482 626.518 41.85 418.5 41.85C210.482 41.85 41.85 210.482 41.85 418.5Z" fill="white"/>
<path d="M715.315 706.605C708.211 632.983 673.763 564.701 618.771 515.239C563.78 465.777 492.242 438.73 418.282 439.439C344.322 440.148 273.316 468.561 219.283 519.069C165.25 569.576 132.117 638.506 126.426 712.25L161.789 714.979C166.797 650.084 195.954 589.426 243.503 544.979C291.052 500.533 353.538 475.53 418.622 474.906C483.707 474.282 546.66 498.083 595.053 541.609C643.445 585.136 673.76 645.224 680.011 710.011L715.315 706.605Z" fill="white"/>
<path d="M559.745 306.027C559.745 382.589 497.679 444.655 421.116 444.655C344.554 444.655 282.488 382.589 282.488 306.027C282.488 229.465 344.554 167.399 421.116 167.399C497.679 167.399 559.745 229.465 559.745 306.027ZM310.214 306.027C310.214 367.277 359.867 416.93 421.116 416.93C482.366 416.93 532.019 367.277 532.019 306.027C532.019 244.778 482.366 195.125 421.116 195.125C359.867 195.125 310.214 244.778 310.214 306.027Z" fill="white"/>
</svg>
